Coordinates
version=1
nRows=17
nColumns=40
inDegrees=yes

Units are S.I. units (second, meters, Newtons, ...)
If the header above contains a line with 'inDegrees', this indicates whether rotational values are in degrees (yes) or radians (no).

endheader
time	pelvis_tilt	pelvis_list	pelvis_rotation	pelvis_tx	pelvis_ty	pelvis_tz	hip_flexion_r	hip_adduction_r	hip_rotation_r	knee_angle_r	knee_angle_r_beta	ankle_angle_r	subtalar_angle_r	mtp_angle_r	hip_flexion_l	hip_adduction_l	hip_rotation_l	knee_angle_l	knee_angle_l_beta	ankle_angle_l	subtalar_angle_l	mtp_angle_l	lumbar_extension	lumbar_bending	lumbar_rotation	arm_flex_r	arm_add_r	arm_rot_r	elbow_flex_r	pro_sup_r	wrist_flex_r	wrist_dev_r	arm_flex_l	arm_add_l	arm_rot_l	elbow_flex_l	pro_sup_l	wrist_flex_l	wrist_dev_l
      4.25000000	    -31.62411516	     -1.91757748	     -3.09532699	     -0.39497242	      0.65013360	     -0.90565383	     88.47763364	     -7.57535759	     -4.49573113	     89.48663277	      1.56183638	     35.42972677	      0.00000000	      0.00000000	     88.89740116	    -19.34575339	     -1.07629708	     90.64408477	      1.58203773	     35.41575644	      0.00000000	      0.00000000	    -27.92399031	    -15.75098247	    -36.32888414	     30.78743938	    -27.62446945	     89.61561227	     81.12549807	      3.70628116	      0.00000000	      0.00000000	    -66.75952004	    -21.66674944	    -14.46473879	    114.16600800	     88.05299854	      0.00000000	      0.00000000
      4.25500000	    -31.45024800	     -1.81118167	     -3.05441199	     -0.39413260	      0.65232174	     -0.90589120	     88.04374357	     -7.64900531	     -4.43464525	     89.14350536	      1.55584768	     35.34285428	      0.00000000	      0.00000000	     88.33962359	    -19.25554595	     -1.30174057	     90.26189168	      1.57536720	     35.33848358	      0.00000000	      0.00000000	    -28.02933110	    -15.79816861	    -36.41208764	     30.85209426	    -27.51694653	     89.62093455	     81.03120869	      3.69610174	      0.00000000	      0.00000000	    -66.63640084	    -21.85739798	    -14.44771894	    114.12157051	     88.05080686	      0.00000000	      0.00000000
      4.26000000	    -31.11092887	     -1.66061288	     -3.00031181	     -0.39305370	      0.65479298	     -0.90621432	     87.43563600	     -7.76765543	     -4.34139277	     88.85643449	      1.55083734	     35.34529436	      0.00000000	      0.00000000	     87.55542575	    -19.15819551	     -1.61816296	     89.89226422	      1.56891598	     35.39292209	      0.00000000	      0.00000000	    -28.27883052	    -15.88142276	    -36.54371727	     30.95617763	    -27.41632802	     89.61991098	     80.84257507	      3.67758791	      0.00000000	      0.00000000	    -66.51048430	    -22.10857949	    -14.35052195	    113.97925353	     88.05312480	      0.00000000	      0.00000000
      4.26500000	    -31.05152014	     -1.67347622	     -2.96991236	     -0.39228899	      0.65691200	     -0.90631255	     87.07535753	     -7.78168486	     -4.38215096	     88.48416256	      1.54433997	     35.26859105	      0.00000000	      0.00000000	     87.18586524	    -19.06870261	     -1.65594140	     89.49457709	      1.56197503	     35.32479848	      0.00000000	      0.00000000	    -28.18909202	    -15.82864288	    -36.58045741	     31.04690057	    -27.35227411	     89.63213046	     80.79276078	      3.67777366	      0.00000000	      0.00000000	    -66.47093306	    -22.18397487	    -14.40971945	    113.97661059	     88.04796536	      0.00000000	      0.00000000
      4.27000000	    -30.81756164	     -1.66793022	     -2.90199332	     -0.39110979	      0.65969379	     -0.90652264	     86.44880061	     -7.86082622	     -4.44538085	     88.04513891	      1.53667756	     35.21394488	      0.00000000	      0.00000000	     86.51723918	    -18.98474977	     -1.81209212	     89.03182697	      1.55389852	     35.29052471	      0.00000000	      0.00000000	    -28.26817865	    -15.76048558	    -36.69431625	     31.14430029	    -27.19749169	     89.62257493	     80.56999141	      3.66635941	      0.00000000	      0.00000000	    -66.34560632	    -22.35383534	    -14.43559868	    113.90405963	     88.04878256	      0.00000000	      0.00000000
      4.27500000	    -30.56527862	     -1.62156965	     -2.81922956	     -0.38998837	      0.66256441	     -0.90687273	     85.81780201	     -7.98005946	     -4.48261048	     87.62348342	      1.52931829	     35.17991663	      0.00000000	      0.00000000	     85.81735317	    -18.83828130	     -1.98762965	     88.54560614	      1.54541237	     35.24806991	      0.00000000	      0.00000000	    -28.32447870	    -15.71871262	    -36.79944876	     31.25610309	    -27.08451292	     89.62654616	     80.42105654	      3.66675794	      0.00000000	      0.00000000	    -66.23984732	    -22.52096424	    -14.40816630	    113.80474999	     88.05034019	      0.00000000	      0.00000000
      4.28000000	    -30.32317598	     -1.53477278	     -2.83893917	     -0.38863411	      0.66560376	     -0.90687542	     85.17797703	     -8.01736325	     -4.53142054	     87.13040715	      1.52071248	     35.09542312	      0.00000000	      0.00000000	     85.08719521	    -18.79014958	     -2.16658054	     88.04711709	      1.53671209	     35.15154401	      0.00000000	      0.00000000	    -28.33851723	    -15.79034509	    -36.88249146	     31.39273349	    -26.97769968	     89.64728816	     80.27810226	      3.65999664	      0.00000000	      0.00000000	    -66.18861612	    -22.64646374	    -14.45464323	    113.72041445	     88.04616455	      0.00000000	      0.00000000
      4.28500000	    -30.05898790	     -1.48767658	     -2.72608695	     -0.38727025	      0.66880266	     -0.90730491	     84.47328225	     -8.15588627	     -4.54606775	     86.65546258	      1.51242314	     35.04081828	      0.00000000	      0.00000000	     84.31668822	    -18.61684932	     -2.38317510	     87.48808119	      1.52695507	     35.10177722	      0.00000000	      0.00000000	    -28.34499101	    -15.73257617	    -37.07801144	     31.51605399	    -26.85370498	     89.63636103	     80.10211685	      3.65203659	      0.00000000	      0.00000000	    -66.08664773	    -22.71792643	    -14.52387810	    113.66457887	     88.04418907	      0.00000000	      0.00000000
      4.29000000	    -29.71583677	     -1.54423512	     -2.76991001	     -0.38546365	      0.67233698	     -0.90703096	     83.61620062	     -8.09425052	     -4.71869445	     86.12209883	      1.50311418	     34.96487683	      0.00000000	      0.00000000	     83.44073083	    -18.71094532	     -2.51333381	     86.93652244	      1.51732856	     35.03141788	      0.00000000	      0.00000000	    -28.36888232	    -15.69589365	    -37.12471638	     31.61224894	    -26.65784940	     89.64800788	     79.93434934	      3.65082847	      0.00000000	      0.00000000	    -66.10529360	    -22.71902942	    -14.62987518	    113.52633103	     88.04135791	      0.00000000	      0.00000000
      4.29500000	    -29.47448647	     -1.62730999	     -2.74318601	     -0.38375129	      0.67587102	     -0.90721467	     82.82197581	     -8.11325286	     -4.90887863	     85.50757492	      1.49238872	     34.87540570	      0.00000000	      0.00000000	     82.69685526	    -18.67430546	     -2.58885914	     86.37819083	      1.50758383	     34.98640787	      0.00000000	      0.00000000	    -28.23729861	    -15.55381699	    -37.19454581	     31.73163986	    -26.55116306	     89.65019388	     79.73267817	      3.64598554	      0.00000000	      0.00000000	    -66.01591091	    -22.67484738	    -14.71845460	    113.45604793	     88.04259736	      0.00000000	      0.00000000
      4.30000000	    -29.08227124	     -1.50982950	     -2.65760154	     -0.38188714	      0.68010050	     -0.90766561	     81.86916580	     -8.30946903	     -4.97977213	     84.81525711	      1.48030549	     34.74447888	      0.00000000	      0.00000000	     81.63578165	    -18.44309266	     -2.81656894	     85.67008010	      1.49522497	     34.85163044	      0.00000000	      0.00000000	    -28.24894100	    -15.58860451	    -37.38225236	     31.85079961	    -26.42132717	     89.65203684	     79.49973588	      3.63706851	      0.00000000	      0.00000000	    -65.84115397	    -22.71901205	    -14.82930759	    113.31796637	     88.03882886	      0.00000000	      0.00000000
      4.30500000	    -28.62777916	     -1.37572885	     -2.52125694	     -0.37983160	      0.68457059	     -0.90819875	     80.84466978	     -8.56323239	     -5.02145027	     84.16343539	      1.46892906	     34.62408515	      0.00000000	      0.00000000	     80.45027961	    -18.15828778	     -3.11772417	     84.89050526	      1.48161882	     34.74409621	      0.00000000	      0.00000000	    -28.30479113	    -15.62216938	    -37.67406549	     31.98614644	    -26.23148124	     89.65229554	     79.26561627	      3.62961411	      0.00000000	      0.00000000	    -65.73515484	    -22.72902401	    -14.95386197	    113.19930476	     88.03966228	      0.00000000	      0.00000000
      4.31000000	    -28.29239532	     -1.30143904	     -2.40093729	     -0.37774654	      0.68896086	     -0.90872671	     79.91372706	     -8.77983267	     -5.12513982	     83.49717927	      1.45730069	     34.50783688	      0.00000000	      0.00000000	     79.42630298	    -17.93402766	     -3.38657304	     84.12853631	      1.46831995	     34.63110111	      0.00000000	      0.00000000	    -28.15849200	    -15.56159373	    -37.92969678	     32.11309268	    -26.10351064	     89.65587529	     79.04717467	      3.62216378	      0.00000000	      0.00000000	    -65.58666101	    -22.62928517	    -15.02717337	    113.05780653	     88.03984872	      0.00000000	      0.00000000
      4.31500000	    -27.62126650	     -1.16079350	     -2.19637084	     -0.37515692	      0.69402494	     -0.90940887	     78.59510783	     -9.13216031	     -5.19913201	     82.86226300	      1.44621931	     34.43608871	      0.00000000	      0.00000000	     77.94680894	    -17.60332340	     -3.73297012	     83.32902073	      1.45436577	     34.61541440	      0.00000000	      0.00000000	    -28.38568518	    -15.55351815	    -38.37203177	     32.23564581	    -25.84080109	     89.63731956	     78.66252733	      3.61657889	      0.00000000	      0.00000000	    -65.47237020	    -22.48794102	    -15.23313464	    112.80778379	     88.04123158	      0.00000000	      0.00000000
      4.32000000	    -27.48707754	     -1.06656484	     -2.13572305	     -0.37314818	      0.69859235	     -0.90983136	     77.82237099	     -9.29994849	     -5.34738196	     82.01675909	      1.43146249	     34.22067612	      0.00000000	      0.00000000	     77.12025402	    -17.33589533	     -3.86848205	     82.48212184	      1.43958460	     34.37304502	      0.00000000	      0.00000000	    -27.92199573	    -15.58888328	    -38.54749691	     32.26034147	    -25.82336016	     89.65233892	     78.60879192	      3.61647711	      0.00000000	      0.00000000	    -65.37700150	    -22.26643398	    -15.36175906	    112.82445830	     88.03668682	      0.00000000	      0.00000000
      4.32500000	    -27.22061608	     -0.93526332	     -2.01510236	     -0.37077617	      0.70370995	     -0.91031965	     76.84906925	     -9.53474955	     -5.46422640	     81.09260890	      1.41533302	     33.94984216	      0.00000000	      0.00000000	     76.04115174	    -17.04556113	     -4.16341856	     81.48073645	      1.42210713	     34.05285548	      0.00000000	      0.00000000	    -27.57893282	    -15.61440648	    -38.83274106	     32.25588576	    -25.69128152	     89.64851311	     78.44790427	      3.60537795	      0.00000000	      0.00000000	    -65.22693202	    -22.06960633	    -15.51568065	    112.63389064	     88.03580663	      0.00000000	      0.00000000
      4.33000000	    -26.57027688	     -0.79573754	     -1.85727220	     -0.36783613	      0.70940413	     -0.91090582	     75.47072257	     -9.84422025	     -5.58304967	     80.30580934	      1.40160078	     33.68851960	      0.00000000	      0.00000000	     74.49496379	    -16.74074122	     -4.52867320	     80.50366530	      1.40505402	     33.82243188	      0.00000000	      0.00000000	    -27.65344452	    -15.62778307	    -39.33601113	     32.40116875	    -25.35860922	     89.63153825	     78.00315111	      3.57176516	      0.00000000	      0.00000000	    -65.07685941	    -21.63383486	    -15.81692404	    112.26496553	     88.04483971	      0.00000000	      0.00000000
